{"title":"Demi Lovato - Neon Lights [Music Video] 720p [Sbyky]","uid":9270570,"size":45246632,"categoryP":"video","categoryS":"music_videos","magnet":"?xt=urn:btih:e78354867b1f50757db3cedd846dda78aaef2808&amp;dn=Demi+Lovato+-+Neon+Lights+%5BMusic+Video%5D+720p+%5BSbyky%5D&amp;tr=udp%3A%2F%2Ftracker.openbittorrent.com%3A80&amp;tr=udp%3A%2F%2Fopen.demonii.com%3A1337&amp;tr=udp%3A%2F%2Ftracker.coppersurfer.tk%3A6969&amp;tr=udp%3A%2F%2Fexodus.desync.com%3A6969","seeders":0,"leechers":1,"uploader":"Sbyky","files":1,"time":1385769656,"description":"\n\nGeneral\nComplete name                            : Demi Lovato - Neon Lights [Music Video] 720p [Sbyky].MP4\nFormat                                   : MPEG-4\nFormat profile                           : Base Media\nCodec ID                                 : isom\nFile size                                : 43.2 MiB\nDuration                                 : 3mn 58s\nOverall bit rate mode                    : Variable\nOverall bit rate                         : 1 518 Kbps\nEncoded date                             : UTC 2013-11-21 05:03:23\nTagged date                              : UTC 2013-11-21 05:03:23\n\nVideo\nID                                       : 1\nFormat                                   : AVC\nFormat/Info                              : Advanced Video Codec\nFormat profile                           : &lt;a class=&quot;__cf_email__&quot; href=&quot;/cdn-cgi/l/email-protection&quot; data-cfemail=&quot;eba68a8285aba7d8c5da&quot;&gt;[email&amp;#160;protected]&lt;/a&gt;&lt;script cf-hash='f9e31' type=&quot;text/javascript&quot;&gt;\n/* &lt;![CDATA[ */!function(){try{var t=&quot;currentScript&quot;in document?document.currentScript:function(){for(var t=document.getElementsByTagName(&quot;script&quot;),e=t.length;e--;)if(t[e].getAttribute(&quot;cf-hash&quot;))return t[e]}();if(t&amp;&amp;t.previousSibling){var e,r,n,i,c=t.previousSibling,a=c.getAttribute(&quot;data-cfemail&quot;);if(a){for(e=&quot;&quot;,r=parseInt(a.substr(0,2),16),n=2;a.length-n;n+=2)i=parseInt(a.substr(n,2),16)^r,e+=String.fromCharCode(i);e=document.createTextNode(e),c.parentNode.replaceChild(e,c)}}}catch(u){}}();/* ]]&gt; */&lt;/script&gt;\nFormat settings, CABAC                   : Yes\nFormat settings, ReFrames                : 3 frames\nCodec ID                                 : avc1\nCodec ID/Info                            : Advanced Video Coding\nDuration                                 : 3mn 58s\nBit rate                                 : 1 261 Kbps\nWidth                                    : 1 280 pixels\nHeight                                   : 720 pixels\nDisplay aspect ratio                     : 16:9\nFrame rate mode                          : Constant\nFrame rate                               : 23.976 fps\nColor space                              : YUV\nChroma subsampling                       : 4:2:0\nBit depth                                : 8 bits\nScan type                                : Progressive\nBits/(Pixel*Frame)                       : 0.057\nStream size                              : 35.8 MiB (83%)\nEncoded date                             : UTC 2013-11-21 05:03:23\nTagged date                              : UTC 2013-11-21 05:03:23\n\nAudio\nID                                       : 2\nFormat                                   : AAC\nFormat/Info                              : Advanced Audio Codec\nFormat profile                           : LC\nCodec ID                                 : 40\nDuration                                 : 3mn 58s\nBit rate mode                            : Variable\nBit rate                                 : 254 Kbps\nChannel(s)                               : 2 channels\nChannel positions                        : Front: L R\nSampling rate                            : 44.1 KHz\nCompression mode                         : Lossy\nDelay relative to video                  : 42ms\nStream size                              : 7.21 MiB (17%)\nEncoded date                             : UTC 2013-11-21 05:03:02\nTagged date                              : UTC 2013-11-21 05:03:02\n\nShared By Sbyky\n","torrent":{"xt":"urn:btih:e78354867b1f50757db3cedd846dda78aaef2808","amp;dn":"Demi+Lovato+-+Neon+Lights+%5BMusic+Video%5D+720p+%5BSbyky%5D","amp;tr":["udp%3A%2F%2Ftracker.openbittorrent.com%3A80","udp%3A%2F%2Fopen.demonii.com%3A1337","udp%3A%2F%2Ftracker.coppersurfer.tk%3A6969","udp%3A%2F%2Fexodus.desync.com%3A6969"],"infoHash":"e78354867b1f50757db3cedd846dda78aaef2808","infoHashBuffer":{"type":"Buffer","data":[231,131,84,134,123,31,80,117,125,179,206,221,132,109,218,120,170,239,40,8]},"announce":[],"urlList":[]}}